<svg width="100" height="120" viewBox="0 0 100 120" fill="none" xmlns="http://www.w3.org/2000/svg">
  <g transform="rotate(10 50 50)">
    
    <g transform="rotate(12 50 50)">
      <path d="M50 88 L50 115" stroke="#5B7A99" stroke-width="8" stroke-linecap="round"/>
      <circle cx="50" cy="50" r="38" stroke="#5B7A99" stroke-width="4" fill="#EAF2FA"/>
      <path d="M40 35C38 32 35 30 30 32M42 42C40 39 37 37 32 39" stroke="white" stroke-width="2" stroke-linecap="round"/>
      <circle cx="55" cy="55" r="3" fill="#1F3A5F"/>
      <rect x="45" y="65" width="6" height="6" stroke="#FF5733" stroke-width="2" fill="none"/>
      <circle cx="65" cy="45" r="5" stroke="#2ECC71" stroke-width="2" fill="none"/>
    </g>
    <path d="M50 92C73.196 92 92 73.196 92 50C92 26.804 73.196 8 50 8C26.804 8 8 26.804 8 50C8 62.098 13.086 72.986 21.364 80.858" stroke="#2AA198" stroke-width="4" stroke-linecap="round"/>
    <path d="M21.364 80.858L26.5 75M21.364 80.858L16 75" stroke="#2AA198" stroke-width="4" stroke-linecap="round"/>
    
  </g>
</svg>